<svg xmlns="http://www.w3.org/2000/svg" width="24" height="24" fill="none" stroke="currentColor" stroke-width="2" stroke-linecap="round" stroke-linejoin="round" class="text-slate-500 dark:text-slate-400 hover:text-slate-900 dark:text-white">
    <path d="M5 5.5A3.5 3.5 0 0 1 8.5 2H12v7H8.5A3.5 3.5 0 0 1 5 5.5zM12 2h3.5a3.5 3.5 0 1 1 0 7H12V2z"/>
    <path d="M12 12.5a3.5 3.5 0 1 1 7 0 3.5 3.5 0 1 1-7 0zm-7 7A3.5 3.5 0 0 1 8.5 16H12v3.5a3.5 3.5 0 1 1-7 0zm0-7A3.5 3.5 0 0 1 8.5 9H12v7H8.5A3.5 3.5 0 0 1 5 12.5z"/>
</svg>
