<svg viewBox="0 0 32 32" fill="currentColor" xmlns="http://www.w3.org/2000/svg">
    <defs>
        <style>
            .cls-1{fill:#2f7ded}
        </style>
    </defs>
    <g data-name="direction" id="direction-2">
        <path class="cls-1" d="M20 13H5a1 1 0 0 1 0-2h15a2 2 0 1 0-2-2 1 1 0 0 1-2 0 4 4 0 1 1 4 4Zm-3 12a4 4 0 0 1-4-4 1 1 0 0 1 2 0 2 2 0 1 0 2-2H5a1 1 0 0 1 0-2h12a4 4 0 0 1 0 8Z"/>
        <path class="cls-1" d="M25 21a3 3 0 0 1-3-3 1 1 0 0 1 2 0 1 1 0 0 0 2 0 2 2 0 0 0-2-2H5a1 1 0 0 1 0-2h19a4 4 0 0 1 4 4 3 3 0 0 1-3 3Z"/>
    </g>
</svg>
