<svg viewBox="0 0 32 32" fill="currentColor" xmlns="http://www.w3.org/2000/svg">
    <g data-name="Cloud Drop">
        <path d="M27.89 13.86A6 6 0 0 0 22 9a5.72 5.72 0 0 0-.92.08 7.5 7.5 0 0 0-13.2 2.05A5 5 0 0 0 4.11 17a5.08 5.08 0 0 0 5.06 4H22a6 6 0 0 0 5.89-7.14Z" fill="#9ac3f4"/>
        <path d="m19.31 20.39-2.42-4.84a1 1 0 0 0-1.78 0l-2.42 4.84a4 4 0 0 0 0 3.64A3.6 3.6 0 0 0 15.46 26a3.67 3.67 0 0 0 1.08 0 3.6 3.6 0 0 0 2.73-2 4 4 0 0 0 .04-3.61Z" fill="#fff"/>
        <path d="M27.89 13.86A6 6 0 0 0 22 9a5.72 5.72 0 0 0-.92.08 7.5 7.5 0 0 0-13.2 2.05A5 5 0 0 0 4.11 17a5.08 5.08 0 0 0 5.06 4h3.3a4 4 0 0 0 .26 3 3.6 3.6 0 0 0 2.73 2 3.67 3.67 0 0 0 1.08 0 3.6 3.6 0 0 0 2.73-2 4 4 0 0 0 .26-3H22a6 6 0 0 0 5.89-7.14ZM17.5 23.1a1.61 1.61 0 0 1-1.22.88 2.53 2.53 0 0 1-.55 0 1.61 1.61 0 0 1-1.23-.88 2 2 0 0 1 0-1.81l1.5-3.05 1.52 3.05a2 2 0 0 1-.02 1.81Zm7.58-5.55A4 4 0 0 1 22 19h-3.38l-1.73-3.45a1 1 0 0 0-1.78 0L13.38 19H9.17a3.08 3.08 0 0 1-3.1-2.36 3 3 0 0 1 .53-2.45A3 3 0 0 1 8.75 13a1 1 0 0 0 .89-.77 5.5 5.5 0 0 1 10.1-1.54 1 1 0 0 0 1.14.45A3.71 3.71 0 0 1 22 11a4 4 0 0 1 3.08 6.55Z" fill="#2f7ded"/>
    </g>
</svg>
