<svg viewBox="0 0 32 32" xmlns="http://www.w3.org/2000/svg">
    <g data-name="Sun Clouds">
        <path d="M27 15.55a10.46 10.46 0 0 0-5.71-8.8 11.28 11.28 0 0 0-10.32 0 1 1 0 0 0-.52.73 1 1 0 0 0 .22.79 1 1 0 0 0 1.12.4 2.58 2.58 0 0 1 .47-.06 1.7 1.7 0 0 1 1.5.94 1.44 1.44 0 0 1 .15.41 1.71 1.71 0 0 1-.36 1.42 1.68 1.68 0 0 1-1.3.61H6.63a1 1 0 0 0-.94.65 11 11 0 0 0 8.87 14.76 11.28 11.28 0 0 0 1.44.1 11 11 0 0 0 7.29-2.75 1 1 0 0 0 .27-1.1 1 1 0 0 0-.93-.65h-2.86a1.69 1.69 0 0 1-1.44-.8 1.78 1.78 0 0 1 0-1.79 1.42 1.42 0 0 1 1.09-.76 1.85 1.85 0 0 1 .83 0 1 1 0 0 0 1.15-.45 2.55 2.55 0 0 1 3.19-1 2.37 2.37 0 0 1 .64.42 1 1 0 0 0 1.67-.56 11.14 11.14 0 0 0 .1-2.51Z" fill="#fff"/>
        <path d="M15.52 8.65a3.69 3.69 0 0 0-3.27-2h-.32a4.51 4.51 0 0 0-7.66 1.19A3.05 3.05 0 0 0 2.6 9.11 3.15 3.15 0 0 0 5.3 14h6.93a3.7 3.7 0 0 0 2.84-1.33 3.75 3.75 0 0 0 .78-3.09 3.64 3.64 0 0 0-.33-.93Zm13.99 11.46a3 3 0 0 0-1.68-1.27 4.26 4.26 0 0 0-1.07-1.58.6.6 0 0 0-.08-.08 4.4 4.4 0 0 0-1.18-.78 4.5 4.5 0 0 0-5.32 1.23 4.92 4.92 0 0 0-.93 0 3.43 3.43 0 0 0-2.62 1.85 3.77 3.77 0 0 0 .11 3.74A3.66 3.66 0 0 0 19.88 25h6.93a3.15 3.15 0 0 0 2.7-4.89Z" fill="#9ac3f4"/>
        <path d="M29.51 20.11a3 3 0 0 0-1.68-1.27 4.43 4.43 0 0 0-.83-1.35 12.26 12.26 0 0 0 0-1.94 10.46 10.46 0 0 0-5.71-8.8 11.36 11.36 0 0 0-9.57-.35A4.44 4.44 0 0 0 8.46 5a4.49 4.49 0 0 0-4.19 2.84A3.05 3.05 0 0 0 2.6 9.11 3.15 3.15 0 0 0 5.29 14a11 11 0 0 0 9.27 13.41 11.28 11.28 0 0 0 1.44.09 11 11 0 0 0 7-2.5h3.85a3.15 3.15 0 0 0 2.7-4.89ZM4.15 11.27a1.19 1.19 0 0 1 .11-1.06 1.16 1.16 0 0 1 .87-.51A1 1 0 0 0 6 8.93 2.49 2.49 0 0 1 8.46 7a2.46 2.46 0 0 1 2.1 1.15 1 1 0 0 0 .08.11 1 1 0 0 0 1.12.4 2.58 2.58 0 0 1 .47-.06 1.7 1.7 0 0 1 1.5.94 1.44 1.44 0 0 1 .15.41 1.71 1.71 0 0 1-.36 1.42 1.68 1.68 0 0 1-1.3.61H5.3a1.18 1.18 0 0 1-1.15-.71Zm10.66 14.15A9 9 0 0 1 7.35 14h4.88a3.7 3.7 0 0 0 2.84-1.33 3.75 3.75 0 0 0 .78-3.09 3.64 3.64 0 0 0-.33-.93 4 4 0 0 0-.32-.52L15.08 8a2.89 2.89 0 0 0-.29-.32l-.07-.08a9.66 9.66 0 0 1 5.66 1A8.42 8.42 0 0 1 25 15.67v.56a5.58 5.58 0 0 0-.68-.16L24 16h-.5a4.53 4.53 0 0 0-3.47 1.63 4.92 4.92 0 0 0-.93 0 3.43 3.43 0 0 0-2.62 1.85 3.77 3.77 0 0 0 .11 3.74 3.64 3.64 0 0 0 2.48 1.69 9 9 0 0 1-4.26.51ZM28 22.27a1.18 1.18 0 0 1-1.15.73h-6.97a1.69 1.69 0 0 1-1.44-.8 1.79 1.79 0 0 1 0-1.8 1.43 1.43 0 0 1 1.09-.75h.36a1.29 1.29 0 0 1 .36.06 1.16 1.16 0 0 0 .37 0 1 1 0 0 0 .89-.48A2.54 2.54 0 0 1 23.7 18a2.64 2.64 0 0 1 .87.21 2.37 2.37 0 0 1 .64.42 1 1 0 0 0 .27.18 2.3 2.3 0 0 1 .6 1.1 1 1 0 0 0 .9.78 1.16 1.16 0 0 1 .87.51 1.19 1.19 0 0 1 .15 1.07Z" fill="#2f7ded"/>
    </g>
</svg>
