<svg viewBox="0 0 32 32" fill="currentColor" xmlns="http://www.w3.org/2000/svg">
    <path d="M29.91 13.49a4.65 4.65 0 0 0-4.54-3.76h-.57a5.73 5.73 0 0 0-9.9 1.55 1 1 0 0 0 .51 1.24 5.45 5.45 0 0 1 2.33 2.16 1 1 0 0 0 1.14.45A3.87 3.87 0 0 1 20 15a4 4 0 0 1 3.93 3.19 1 1 0 0 0 1 .81h.46a4.62 4.62 0 0 0 4.55-5.51Z" fill="#fff"/>
    <path d="M25.89 17.86v-.07A6 6 0 0 0 20 13a7.3 7.3 0 0 0-.94.07 7.41 7.41 0 0 0-2.77-2.32A7.31 7.31 0 0 0 13 10a7.47 7.47 0 0 0-7.12 5.13A5 5 0 0 0 2.11 21a5.09 5.09 0 0 0 5.06 4H20a6 6 0 0 0 5.89-7.14Z" fill="#9ac3f4"/>
    <path d="M29.91 13.49a4.65 4.65 0 0 0-4.54-3.76h-.57a5.72 5.72 0 0 0-9.45.62A7.37 7.37 0 0 0 13 10a7.47 7.47 0 0 0-7.12 5.13A5 5 0 0 0 2.11 21a5.09 5.09 0 0 0 5.06 4H20a6 6 0 0 0 6-6 4.61 4.61 0 0 0 3.92-5.46Zm-6.84 8.06A4 4 0 0 1 20 23H7.17a3.08 3.08 0 0 1-3.1-2.36 3 3 0 0 1 .54-2.45A2.94 2.94 0 0 1 6.75 17a1 1 0 0 0 .89-.77A5.49 5.49 0 0 1 13 12a5.36 5.36 0 0 1 2.41.55 5.45 5.45 0 0 1 2.33 2.16 1 1 0 0 0 1.14.45A3.87 3.87 0 0 1 20 15a4 4 0 0 1 3.93 3.19s0 0 0 .06a4 4 0 0 1-.86 3.3ZM27.4 16a2.63 2.63 0 0 1-1.74.94.41.41 0 0 0-.05-.09 3.68 3.68 0 0 0-.15-.35 5.28 5.28 0 0 0-.27-.53 4 4 0 0 0-.22-.34 3.54 3.54 0 0 0-.34-.45 2.61 2.61 0 0 0-.27-.31l-.4-.39-.32-.26-.47-.32-.34-.21-.54-.25-.35-.14a6.68 6.68 0 0 0-.64-.17l-.3-.04a5.55 5.55 0 0 0-1-.09 7.3 7.3 0 0 0-.94.07 7.31 7.31 0 0 0-.78-.89l-.23-.18a7.4 7.4 0 0 0-.82-.66l-.08-.06a3.73 3.73 0 0 1 6.34.13 1 1 0 0 0 1.13.45 3.21 3.21 0 0 1 .74-.1 2.64 2.64 0 0 1 2 4.31Z" fill="#2f7ded"/>
</svg>
