<svg viewBox="0 0 32 32" fill="currentColor" xmlns="http://www.w3.org/2000/svg">
    <defs>
        <style>
            .cls-2{fill:#fff}.cls-4{fill:#2f7ded}
        </style>
    </defs>
    <g id="Compass">
        <path d="M16 8a3 3 0 1 1 3-3 3 3 0 0 1-3 3Zm0-4a1 1 0 1 0 1 1 1 1 0 0 0-1-1Z" fill="#b3bfc6"/>
        <circle class="cls-2" cx="16" cy="18" r="12"/>
        <path class="cls-2" d="m21.92 13.39-3 7a.94.94 0 0 1-.53.53l-7 3A1 1 0 0 1 11 24a1 1 0 0 1-.92-1.39l3-7a.94.94 0 0 1 .53-.53l7-3a1 1 0 0 1 1.31 1.31Z"/>
        <path d="m21.92 13.39-3 7a1 1 0 0 1-.21.32l-5.42-5.42a1 1 0 0 1 .32-.21l7-3a1 1 0 0 1 1.31 1.31Z" fill="#9ac3f4"/>
        <path class="cls-4" d="M18.68 6.31A2.88 2.88 0 0 0 19 5a3 3 0 0 0-6 0 2.88 2.88 0 0 0 .32 1.31 12 12 0 1 0 5.36 0ZM16 4a1 1 0 1 1-1 1 1 1 0 0 1 1-1Zm0 24a10 10 0 1 1 10-10 10 10 0 0 1-10 10Z"/>
        <path class="cls-4" d="M21.92 12.62a1.25 1.25 0 0 0-.08-.12.91.91 0 0 0-.13-.19 1.19 1.19 0 0 0-.23-.16l-.09-.06a.94.94 0 0 0-.28-.06L21 12h-.07a1.14 1.14 0 0 0-.32.07l-7 3a1 1 0 0 0-.57.55l-3 7a.76.76 0 0 0-.06.27S10 23 10 23v.11a.76.76 0 0 0 .06.27.92.92 0 0 0 .19.28s0 0 .06.06a1.34 1.34 0 0 0 .23.16A1 1 0 0 0 11 24a1 1 0 0 0 .35-.07l7-3a1.05 1.05 0 0 0 .55-.55l3-7a.76.76 0 0 0 .06-.27S22 13 22 13v-.11a.76.76 0 0 0-.08-.27Zm-9 8.48 1.44-3.35 1.91 1.91Zm4.76-2.85-1.91-1.91 3.33-1.44Z"/>
    </g>
</svg>
