<svg viewBox="0 0 32 32" xmlns="http://www.w3.org/2000/svg">
    <g data-name="cloud moon">
        <path d="M29.89 19.86A6 6 0 0 0 24 15a7.12 7.12 0 0 0-.92.07 7.5 7.5 0 0 0-13.2 2.06A5 5 0 0 0 6.11 23a5.08 5.08 0 0 0 5.06 4H24a6 6 0 0 0 5.89-7.14Z" fill="#9ac3f4"/>
        <path d="M9.31 2.14a1 1 0 0 0-1.05.42 1 1 0 0 0 0 1.13A4 4 0 0 1 5 10a4.14 4.14 0 0 1-.87-.09 1 1 0 0 0-1 .41 1 1 0 0 0 0 1.14A6 6 0 0 0 14 8a6 6 0 0 0-4.69-5.86Z" fill="#fff"/>
        <path d="M29.89 19.86A6 6 0 0 0 24 15a7.12 7.12 0 0 0-.92.07 7.5 7.5 0 0 0-13.2 2.06A5 5 0 0 0 6.11 23a5.08 5.08 0 0 0 5.06 4H24a6 6 0 0 0 5.89-7.14Zm-2.81 3.69A4 4 0 0 1 24 25H11.17a3.08 3.08 0 0 1-3.1-2.36 3 3 0 0 1 .53-2.45A3 3 0 0 1 10.75 19a1 1 0 0 0 .89-.77 5.5 5.5 0 0 1 10.1-1.54 1 1 0 0 0 1.14.45A3.8 3.8 0 0 1 24 17a4 4 0 0 1 3.08 6.55ZM14 8a6 6 0 0 0-4.69-5.86 1 1 0 0 0-1.05.42 1 1 0 0 0 0 1.13A4 4 0 0 1 5 10a4.14 4.14 0 0 1-.87-.09 1 1 0 0 0-1 .41 1 1 0 0 0 0 1.14A6 6 0 0 0 14 8Zm-3-2a5.37 5.37 0 0 0 0-.7 4 4 0 0 1-4.3 6.47A6 6 0 0 0 11 6Z" fill="#2f7ded"/>
    </g>
</svg>
