<svg viewBox="0 0 32 32" fill="currentColor" xmlns="http://www.w3.org/2000/svg">
    <defs>
        <style>
            .cls-2{fill:#2f7ded}
        </style>
    </defs>
    <g data-name="cloud refresh" id="cloud_refresh">
        <path d="M27.89 13.86A6 6 0 0 0 22 9a7.12 7.12 0 0 0-.92.07 7.5 7.5 0 0 0-13.2 2.06A5 5 0 0 0 4.11 17a5.08 5.08 0 0 0 5.06 4H22a6 6 0 0 0 5.89-7.14Z" fill="#9ac3f4"/>
        <path class="cls-2" d="M16 15a5 5 0 0 0-5 5 4.92 4.92 0 0 0 .67 2.5l1.51-1.5a2.72 2.72 0 0 1-.18-1 3 3 0 1 1 3 3v-2l-3 3 3 3v-2a5 5 0 0 0 0-10Z"/>
        <path class="cls-2" d="M27.89 13.86A6 6 0 0 0 22 9a7.12 7.12 0 0 0-.92.07 7.5 7.5 0 0 0-13.2 2.06 5 5 0 0 0-.18 9.66 1 1 0 0 0 1.3-1 1 1 0 0 0-.77-1 3 3 0 0 1-2.16-2.23 3 3 0 0 1 .53-2.45A3 3 0 0 1 8.75 13a.92.92 0 0 0 .87-.7 5.51 5.51 0 0 1 10.13-1.6 1 1 0 0 0 1.13.44A3.8 3.8 0 0 1 22 11a4 4 0 0 1 1.6 7.67 1 1 0 0 0-.58.9 1 1 0 0 0 1.41.92 6 6 0 0 0 2.21-1.66 6 6 0 0 0 1.25-4.97Z"/>
    </g>
</svg>
