<svg viewBox="0 0 32 32" xmlns="http://www.w3.org/2000/svg">
    <g data-name="Cloud Download">
        <path d="M27.89 12.86A6 6 0 0 0 22 8a6.84 6.84 0 0 0-.91.07 7.51 7.51 0 0 0-13.21 2.06A5 5 0 0 0 4.11 16a5.08 5.08 0 0 0 5.06 4H22a6 6 0 0 0 5.89-7.14Z" fill="#9ac3f4"/>
        <path d="M19.71 22.29a1 1 0 0 0-1.42 0L17 23.59V14a1 1 0 0 0-2 0v9.59l-1.29-1.3a1 1 0 0 0-1.42 1.42l3 3a1 1 0 0 0 1.42 0l3-3a1 1 0 0 0 0-1.42Z" fill="#5ca3f7"/>
        <path d="M27.89 12.86A6 6 0 0 0 22 8a6.84 6.84 0 0 0-.91.07 7.51 7.51 0 0 0-13.21 2.06A5 5 0 0 0 4.11 16a5.08 5.08 0 0 0 5.06 4H15v3.59l-1.29-1.3a1 1 0 0 0-1.42 1.42l3 3a1 1 0 0 0 1.42 0l3-3a1 1 0 0 0-1.42-1.42L17 23.59V20h5a6 6 0 0 0 5.89-7.14Zm-2.81 3.69A4 4 0 0 1 22 18h-5v-4a1 1 0 0 0-2 0v4H9.17a3.08 3.08 0 0 1-3.1-2.36 3 3 0 0 1 .53-2.45A3 3 0 0 1 8.75 12a1 1 0 0 0 .89-.77 5.5 5.5 0 0 1 10.1-1.54 1 1 0 0 0 1.14.45A3.8 3.8 0 0 1 22 10a4 4 0 0 1 3.08 6.55Z" fill="#2f7ded"/>
    </g>
</svg>
