<svg viewBox="0 0 32 32" xmlns="http://www.w3.org/2000/svg">
    <g data-name="cloud rain">
        <path d="M27.89 9.86A6 6 0 0 0 22 5a7.12 7.12 0 0 0-.92.07 7.5 7.5 0 0 0-13.2 2.06A5 5 0 0 0 4.11 13a5.08 5.08 0 0 0 5.06 4H22a6 6 0 0 0 5.89-7.14Z" fill="#9ac3f4"/>
        <path d="M9.55 19.17a1 1 0 0 0-1.38.28l-2 3a1 1 0 0 0 .28 1.38A.94.94 0 0 0 7 24a1 1 0 0 0 .83-.45l2-3a1 1 0 0 0-.28-1.38Zm5 0a1 1 0 0 0-1.38.28l-4 6a1 1 0 0 0 .28 1.38.94.94 0 0 0 .55.17 1 1 0 0 0 .83-.45l4-6a1 1 0 0 0-.28-1.38Zm3.62.28-4 6a1 1 0 0 0 .28 1.38.94.94 0 0 0 .55.17 1 1 0 0 0 .83-.45l4-6a1 1 0 0 0-1.66-1.1Zm5 0-2 3a1 1 0 0 0 .28 1.38.94.94 0 0 0 .55.17 1 1 0 0 0 .83-.45l2-3a1 1 0 0 0-1.66-1.1ZM22 17H9.17a5.08 5.08 0 0 1-5.06-4 5 5 0 0 1 3.77-5.87 7.5 7.5 0 0 1 13.17-2.06A7.12 7.12 0 0 1 22 5a6 6 0 1 1 0 12ZM15 4a5.49 5.49 0 0 0-5.36 4.25 1 1 0 0 1-.89.75 3 3 0 0 0-2.15 1.19 3 3 0 0 0-.53 2.46A3.09 3.09 0 0 0 9.17 15H22a4 4 0 1 0 0-8 3.8 3.8 0 0 0-1.1.16 1 1 0 0 1-1.14-.45A5.44 5.44 0 0 0 15 4Z" fill="#2f7ded"/>
    </g>
</svg>
