<svg viewBox="0 0 32 32" xmlns="http://www.w3.org/2000/svg">
    <defs>
        <style>
            .cls-1{fill:#2f7ded}
        </style>
    </defs>
    <g data-name="cloud rain moon" id="cloud_rain_moon">
        <path class="cls-1" d="M10 30a.94.94 0 0 1-.55-.17 1 1 0 0 1-.28-1.38l2-3a1 1 0 0 1 1.66 1.1l-2 3A1 1 0 0 1 10 30Zm4 0a.94.94 0 0 1-.55-.17 1 1 0 0 1-.28-1.38l2-3a1 1 0 1 1 1.66 1.1l-2 3A1 1 0 0 1 14 30Zm4 0a.94.94 0 0 1-.55-.17 1 1 0 0 1-.28-1.38l2-3a1 1 0 0 1 1.66 1.1l-2 3A1 1 0 0 1 18 30Zm4 0a.94.94 0 0 1-.55-.17 1 1 0 0 1-.28-1.38l2-3a1 1 0 0 1 1.66 1.1l-2 3A1 1 0 0 1 22 30Z"/>
        <path d="M29.44 16.86a6 6 0 0 0-5.9-4.86 5.5 5.5 0 0 0-.91.08 7.5 7.5 0 0 0-13.2 2.05A5 5 0 0 0 6.55 16a5 5 0 0 0-.9 4 5.1 5.1 0 0 0 5.07 4h12.82a6 6 0 0 0 5.9-7.14Z" fill="#9ac3f4"/>
        <path d="M7.6 2a1 1 0 0 0-1 1.48A3 3 0 0 1 7 5a3 3 0 0 1-3.35 3 1 1 0 0 0-1 .43 1 1 0 0 0 0 1.05A5 5 0 1 0 7.6 2Z" fill="#fff"/>
        <path class="cls-1" d="M23.54 24H10.72a5.1 5.1 0 0 1-5.07-4 5 5 0 0 1 .9-4 5 5 0 0 1 2.88-1.86 7.5 7.5 0 0 1 13.17-2.06 5.5 5.5 0 0 1 .91-.08 6 6 0 0 1 4.62 9.83A6 6 0 0 1 23.54 24Zm-7-13a5.47 5.47 0 0 0-5.35 4.25 1 1 0 0 1-.9.77 2.94 2.94 0 0 0-2.14 1.17 3 3 0 0 0-.54 2.45A3.09 3.09 0 0 0 10.72 22h12.82a4 4 0 0 0 3.93-4.78A4 4 0 0 0 23.54 14a3.8 3.8 0 0 0-1.1.16 1 1 0 0 1-1.14-.45A5.43 5.43 0 0 0 16.54 11ZM7 12a5 5 0 0 1-4.35-2.54 1 1 0 0 1 0-1.05 1 1 0 0 1 1-.43A3 3 0 0 0 7 5a3 3 0 0 0-.39-1.48A1 1 0 0 1 7.6 2 5 5 0 0 1 7 12ZM5.7 9.7A3 3 0 0 0 9 4.76 1.93 1.93 0 0 1 9 5a5 5 0 0 1-3.3 4.7Z"/>
    </g>
</svg>
