<svg viewBox="0 0 32 32" fill="currentColor" xmlns="http://www.w3.org/2000/svg">
    <defs>
        <style>
            .cls-1{fill:#b3bfc6}.cls-2{fill:#9ac3f4}
        </style>
    </defs>
    <g id="Direction">
        <path class="cls-1" d="M14 14a1 1 0 0 1-.51-.14l-5-3a1 1 0 0 1 0-1.72l5-3A1 1 0 0 1 15 7v6a1 1 0 0 1-.51.87A1 1 0 0 1 14 14Zm-3.06-4L13 11.23V8.77Z"/>
        <rect class="cls-2" height="28" rx="1" ry="1" width="6" x="4" y="2"/>
        <path class="cls-1" d="M11 30H3a1 1 0 0 1 0-2h8a1 1 0 0 1 0 2Z"/>
        <path class="cls-2" d="M29 7v6a1 1 0 0 1-.79 1l-4.21.9-6 1.29-3.79.81H14a1 1 0 0 1-1-1V4a1 1 0 0 1 1.21-1l3.79.83 6 1.29 4.21.9A1 1 0 0 1 29 7Z"/>
        <path d="M23 5.12v9.76l-4 1.29V3.83l4 1.29z" fill="#fff"/>
        <path d="m28.21 6-14-3A1 1 0 0 0 13 4v2.43l-3 1.8V3a1 1 0 0 0-1-1H5a1 1 0 0 0-1 1v25H3a1 1 0 0 0 0 2h8a1 1 0 0 0 0-2h-1V11.77l3 1.8V16a1 1 0 0 0 1 1c.16 0 14.05-3 14.21-3a1 1 0 0 0 .79-1V7a1 1 0 0 0-.79-1ZM22 6.74v6.52l-1 .22-1 .21V6.31l1 .21ZM6 28V4h2v24Zm4.94-18L13 8.77v2.46ZM15 5.24l3 .64v8.24l-3 .64Zm12 7-3 .64V7.17l3 .64Z" fill="#2f7ded"/>
    </g>
</svg>
