<svg viewBox="0 0 32 32" fill="currentColor" xmlns="http://www.w3.org/2000/svg">
    <path d="M14 30a3 3 0 0 1-3-3v-1a1 1 0 0 1 2 0v1a1 1 0 0 0 2 0V15a1 1 0 0 1 2 0v12a3 3 0 0 1-3 3Zm2-23a1 1 0 0 1-1-1V3a1 1 0 0 1 2 0v3a1 1 0 0 1-1 1Z" fill="#b3bfc6"/>
    <path d="M16 5A13 13 0 0 0 3 18a1 1 0 0 0 1 1h.13a1 1 0 0 0 1-.75 3 3 0 0 1 5.8 0 1 1 0 0 0 1 .75h.26a1 1 0 0 0 1-.75 3 3 0 0 1 5.8 0 1 1 0 0 0 1 .75h.26a1 1 0 0 0 1-.75 3 3 0 0 1 5.8 0 1 1 0 0 0 1 .75H28a1 1 0 0 0 1-1A13 13 0 0 0 16 5Z" fill="#9ac3f4"/>
    <path d="M17 5.05V3a1 1 0 0 0-2 0v2.05A13 13 0 0 0 3 18a1 1 0 0 0 1 1h.13a1 1 0 0 0 1-.75 3 3 0 0 1 5.8 0 1 1 0 0 0 1 .75h.26a1 1 0 0 0 1-.75A3 3 0 0 1 15 16.17V27a1 1 0 0 1-2 0v-1a1 1 0 0 0-2 0v1a3 3 0 0 0 6 0V16.17a3 3 0 0 1 1.9 2.08 1 1 0 0 0 1 .75h.26a1 1 0 0 0 1-.75 3 3 0 0 1 5.8 0 1 1 0 0 0 1 .75H28a1 1 0 0 0 1-1A13 13 0 0 0 17 5.05Zm7 9a5 5 0 0 0-4 2 5 5 0 0 0-8 0 5 5 0 0 0-6.48-1.34 11 11 0 0 1 21 0A5 5 0 0 0 24 14Z" fill="#2f7ded"/>
</svg>
