<svg viewBox="0 0 32 32" xmlns="http://www.w3.org/2000/svg">
    <g data-name="Rainbow cloud">
        <path d="M14.18 13.64a1 1 0 0 1-.74-.33A10 10 0 0 0 6 10a9.72 9.72 0 0 0-2.72.38 1 1 0 0 1-.56-1.92A11.76 11.76 0 0 1 6 8a12 12 0 0 1 8.92 4 1 1 0 0 1-.07 1.41 1 1 0 0 1-.67.23Z" fill="#5ca3f7"/>
        <path d="M11.85 15.54a1 1 0 0 1-.73-.32A7 7 0 0 0 6 13a6.9 6.9 0 0 0-2.62.5 1 1 0 1 1-.76-1.84A8.7 8.7 0 0 1 6 11a9 9 0 0 1 6.58 2.86 1 1 0 0 1-.05 1.41 1 1 0 0 1-.68.27Z" fill="#98cbf4"/>
        <path d="M17.49 13a1 1 0 0 1-.82-.43A13 13 0 0 0 6 7a12.21 12.21 0 0 0-2.78.31 1 1 0 0 1-.44-2 15 15 0 0 1 15.53 6.1 1 1 0 0 1-.82 1.59Z" fill="#2983ef"/>
        <path d="M29.89 18.86A6 6 0 0 0 24 14a6 6 0 0 0-.94.07A7.52 7.52 0 0 0 17 11h-.47a7.26 7.26 0 0 0-2.78.73 7.42 7.42 0 0 0-2.69 2.19 7.32 7.32 0 0 0-1.18 2.2 4.75 4.75 0 0 0-1.76.79 5 5 0 0 0-2 5.12 5.09 5.09 0 0 0 5.06 4H24a6 6 0 0 0 5.89-7.14Z" fill="#9ac3f4"/>
        <path d="M29.89 18.86A6 6 0 0 0 24 14a6 6 0 0 0-.94.07 7.57 7.57 0 0 0-5-3A14.93 14.93 0 0 0 2.78 5.35a1 1 0 0 0 .44 2A12.21 12.21 0 0 1 6 7a13 13 0 0 1 9.5 4.15 6.79 6.79 0 0 0-1.09.31A12 12 0 0 0 6 8a11.76 11.76 0 0 0-3.28.46 1 1 0 0 0 .56 1.92A9.72 9.72 0 0 1 6 10a10 10 0 0 1 6.57 2.46 6.18 6.18 0 0 0-.78.66A9 9 0 0 0 6 11a8.7 8.7 0 0 0-3.38.66 1 1 0 1 0 .76 1.84A6.9 6.9 0 0 1 6 13a7 7 0 0 1 4.56 1.69 7.58 7.58 0 0 0-.68 1.44 4.75 4.75 0 0 0-1.76.79 5 5 0 0 0-2 5.12 5.09 5.09 0 0 0 5.06 4H24a6 6 0 0 0 5.89-7.14Zm-2.82 3.69A4 4 0 0 1 24 24H11.17a3.08 3.08 0 0 1-3.1-2.36 3 3 0 0 1 1.2-3.09 2.88 2.88 0 0 1 1.48-.55 1 1 0 0 0 .9-.78 5.12 5.12 0 0 1 1-2.09 5.39 5.39 0 0 1 2-1.61 5.32 5.32 0 0 1 2.02-.52h.26a5.55 5.55 0 0 1 4.81 2.71 1 1 0 0 0 1.14.45A5.31 5.31 0 0 1 24 16a4 4 0 0 1 3.08 6.55Z" fill="#2f7ded"/>
    </g>
</svg>
