<svg viewBox="0 0 32 32" fill="currentColor" xmlns="http://www.w3.org/2000/svg">
    <g data-name="CLoud moon">
        <path d="M29.7 11.66a5.58 5.58 0 0 0-5.59-4.3h-.4a6.62 6.62 0 0 0-11.55 1.85 4.45 4.45 0 0 0-3.3 5.26A4.55 4.55 0 0 0 13.38 18h11.09a5.32 5.32 0 0 0 5.23-6.34Z" fill="#9ac3f4"/>
        <path d="M25 19.61a1 1 0 0 0-.92-.61H20l1.05-4.61a1 1 0 0 0-1.75-.85L12 22.36a1 1 0 0 0-.13 1.07 1 1 0 0 0 .9.57H16l-1.53 4.42a1 1 0 0 0 .42 1.18 1 1 0 0 0 .52.15 1 1 0 0 0 .72-.3l8.61-8.75a1 1 0 0 0 .26-1.09ZM6.7 2a1 1 0 0 0-.88.45 1 1 0 0 0-.06 1A2.35 2.35 0 0 1 6 4.5 2.51 2.51 0 0 1 3.53 7a1 1 0 0 0-1.09 1.42A4.5 4.5 0 1 0 6.7 2Z" fill="#fff"/>
        <path d="M11 6.5A4.49 4.49 0 0 0 6.7 2a1 1 0 0 0-.88.45 1 1 0 0 0-.06 1A2.35 2.35 0 0 1 6 4.5 2.51 2.51 0 0 1 3.53 7a1 1 0 0 0-1.09 1.42A4.49 4.49 0 0 0 11 6.5ZM6.5 9a2.4 2.4 0 0 1-1.27-.35A4.5 4.5 0 0 0 8 4.5 2.5 2.5 0 0 1 6.5 9Zm23.2 2.66a5.58 5.58 0 0 0-5.59-4.3h-.4a6.62 6.62 0 0 0-11.55 1.85 4.45 4.45 0 0 0-3.3 5.26A4.55 4.55 0 0 0 13.38 18h2.24L12 22.36a1 1 0 0 0-.13 1.07 1 1 0 0 0 .9.57H16l-1.53 4.42a1 1 0 0 0 .42 1.18 1 1 0 0 0 .52.15 1 1 0 0 0 .72-.3l8.61-8.75a1 1 0 0 0-.71-1.7H20l.23-1h4.24a5.32 5.32 0 0 0 5.23-6.34Zm-8 9.34-3.84 3.9.55-1.57a1 1 0 0 0-.13-.91 1 1 0 0 0-.82-.42h-2.55l3.26-3.95-.4 1.73a1 1 0 0 0 .2.84 1 1 0 0 0 .78.38Zm5.3-6.2a3.33 3.33 0 0 1-2.53 1.2h-3.79l.37-1.61a1 1 0 0 0-1.75-.85l-2 2.46h-3.92a2.57 2.57 0 0 1-2.56-1.93 2.46 2.46 0 0 1 2.2-3 1 1 0 0 0 .9-.77A4.62 4.62 0 0 1 22.4 9a1 1 0 0 0 1.14.45 3.51 3.51 0 0 1 .71-.12A3.59 3.59 0 0 1 27.74 12a3.36 3.36 0 0 1-.74 2.8Z" fill="#2f7ded"/>
    </g>
</svg>
