<svg viewBox="0 0 32 32" fill="currentColor" xmlns="http://www.w3.org/2000/svg">
    <defs>
        <style>
            .cls-1{fill:#fff}.cls-2{fill:#2f7ded}
        </style>
    </defs>
    <g data-name="Cloud Thunder" id="Cloud_Thunder">
        <path d="M9.82 16.11a1 1 0 0 1-1-.84 4.45 4.45 0 0 1 3.33-5A6.41 6.41 0 0 1 14.53 7a1 1 0 1 1 1.16 1.62 4.6 4.6 0 0 0-1.78 2.68 1 1 0 0 1-.89.77 2.41 2.41 0 0 0-1.72.93 2.45 2.45 0 0 0-.49 2 1 1 0 0 1-.81 1.1Z"/>
        <path class="cls-1" d="M15.69 7a5.49 5.49 0 0 0-6.46 8.89 1 1 0 0 0 1.11 0 1 1 0 0 0 .47-1A2.45 2.45 0 0 1 11.3 13a2.41 2.41 0 0 1 1.7-.9 1 1 0 0 0 .89-.77 4.6 4.6 0 0 1 1.78-2.68 1 1 0 0 0 .42-.81 1 1 0 0 0-.4-.84Z"/>
        <path class="cls-2" d="M12 5a1 1 0 0 1-1-1V3a1 1 0 0 1 2 0v1a1 1 0 0 1-1 1ZM6.84 18.86a1 1 0 0 1-.7-.29 1 1 0 0 1 0-1.41l.7-.71a1 1 0 0 1 1.42 0 1 1 0 0 1 0 1.41l-.71.71a1 1 0 0 1-.71.29ZM5 13H4a1 1 0 0 1 0-2h1a1 1 0 0 1 0 2Zm1.84-5.45a1 1 0 0 1-.7-.29l-.71-.71a1 1 0 0 1 1.41-1.41l.71.7a1 1 0 0 1 0 1.42 1 1 0 0 1-.71.29Z"/>
        <path d="M29.7 12.66a5.59 5.59 0 0 0-5.59-4.3h-.4a6.62 6.62 0 0 0-11.55 1.81A4.46 4.46 0 0 0 13.38 19h11.09a5.32 5.32 0 0 0 5.23-6.34Z" fill="#9ac3f4"/>
        <path class="cls-1" d="M25 20.61a1 1 0 0 0-.92-.61H20l1.05-4.61a1 1 0 0 0-1.75-.85L12 23.36a1 1 0 0 0-.13 1.07 1 1 0 0 0 .9.57H16l-1.53 4.42a1 1 0 0 0 .42 1.18 1 1 0 0 0 .52.15 1 1 0 0 0 .72-.3l8.61-8.75a1 1 0 0 0 .26-1.09Z"/>
        <path class="cls-2" d="M29.7 12.66a5.59 5.59 0 0 0-5.59-4.3h-.4a6.58 6.58 0 0 0-8.62-1.74A5.45 5.45 0 0 0 12.5 6a5.49 5.49 0 0 0-3.58 9.66A4.56 4.56 0 0 0 13.38 19h2.24L12 23.36a1 1 0 0 0-.13 1.07 1 1 0 0 0 .9.57H16l-1.53 4.42a1 1 0 0 0 .42 1.18 1 1 0 0 0 .52.15 1 1 0 0 0 .72-.3l8.61-8.75a1 1 0 0 0-.71-1.7H20l.23-1h4.24a5.32 5.32 0 0 0 5.23-6.34Zm-8 9.34-3.83 3.9.54-1.57a1 1 0 0 0-.13-.91 1 1 0 0 0-.82-.42h-2.55l3.26-3.95-.4 1.73a1 1 0 0 0 .2.84 1 1 0 0 0 .78.38ZM10.23 11.24a4.47 4.47 0 0 0-.42.45l-.08.09-.06.06a5.89 5.89 0 0 0-.32.54l-.12.2v.05A3.63 3.63 0 0 1 9 11.5 3.5 3.5 0 0 1 12.5 8a3.41 3.41 0 0 1 .85.11v.07a7.4 7.4 0 0 0-.55.79c0 .06-.08.12-.11.18a5.94 5.94 0 0 0-.48 1.06 4.43 4.43 0 0 0-1.87 1ZM27 15.8a3.33 3.33 0 0 1-2.53 1.2h-3.79l.37-1.61a1 1 0 0 0-1.75-.85l-2 2.46h-3.92a2.54 2.54 0 0 1-2.56-1.93.66.66 0 0 1 0-.14 2.1 2.1 0 0 1 0-.5A2.43 2.43 0 0 1 13 12.1a1 1 0 0 0 .89-.77 5.22 5.22 0 0 1 .26-.79 4 4 0 0 1 .37-.68 4.07 4.07 0 0 1 .48-.6 4.46 4.46 0 0 1 .61-.53A4.6 4.6 0 0 1 22.4 10a1 1 0 0 0 1.14.45 3.51 3.51 0 0 1 .71-.12A3.6 3.6 0 0 1 27.74 13a3.36 3.36 0 0 1-.74 2.8Z"/>
    </g>
</svg>
