<svg viewBox="0 0 32 32" xmlns="http://www.w3.org/2000/svg">
    <path d="m22.64 13.76-5-7.47a2 2 0 0 0-3.32 0l-5 7.47a8.45 8.45 0 0 0-.57 8.3 7.84 7.84 0 0 0 6.39 4.5 8.42 8.42 0 0 0 1.64 0 7.84 7.84 0 0 0 6.39-4.5 8.45 8.45 0 0 0-.53-8.3Z" fill="#9ac3f4"/>
    <path d="M16 26.6a7.38 7.38 0 0 1-.82 0 7.84 7.84 0 0 1-6.39-4.5 8.45 8.45 0 0 1 .57-8.3l5-7.47a2 2 0 0 1 3.32 0l5 7.47a8.45 8.45 0 0 1 .57 8.3 7.84 7.84 0 0 1-6.39 4.5 7.38 7.38 0 0 1-.86 0Zm0-19.2-5 7.47a6.34 6.34 0 0 0-.42 6.33 5.78 5.78 0 0 0 4.76 3.37 6.84 6.84 0 0 0 1.28 0 5.78 5.78 0 0 0 4.78-3.37 6.34 6.34 0 0 0-.4-6.33Z" fill="#2f7ded"/>
</svg>
