<svg viewBox="0 0 32 32" fill="currentColor" xmlns="http://www.w3.org/2000/svg">
    <defs>
        <style>
            .cls-2{fill:#2f7ded}
        </style>
    </defs>
    <g id="Temperature">
        <path d="M21 17.11V7a5 5 0 0 0-10 0v10.11a7 7 0 0 0 3.54 11.74A7.21 7.21 0 0 0 16 29a7 7 0 0 0 5-11.89Z" fill="#9ac3f4"/>
        <path class="cls-2" d="M17 19.18V13a1 1 0 0 0-2 0v6.18a3 3 0 1 0 2 0Z"/>
        <path class="cls-2" d="M21 17.11V7a5 5 0 0 0-10 0v10.11a7 7 0 0 0 3.54 11.74A7.21 7.21 0 0 0 16 29a7 7 0 0 0 5-11.89Zm-1.84 8.76a5 5 0 0 1-4.22 1 5 5 0 0 1-2.28-8.6 1 1 0 0 0 .34-.75V7a3 3 0 0 1 6 0v10.54a1 1 0 0 0 .34.75 5 5 0 0 1-.18 7.58Z"/>
    </g>
</svg>
