<svg viewBox="0 0 32 32" fill="currentColor" xmlns="http://www.w3.org/2000/svg">
    <g data-name="cloud fog">
        <path d="M9.17 17H22a6 6 0 0 0 0-12 5.72 5.72 0 0 0-.92.08 7.5 7.5 0 0 0-13.2 2.05A5 5 0 0 0 4.11 13a5.08 5.08 0 0 0 5.06 4Z" fill="#9ac3f4"/>
        <path d="M27 19h-2.91a1 1 0 0 0 0 2H27a1 1 0 0 0 0-2Zm-6 1a1 1 0 0 0-1-1H5a1 1 0 0 0 0 2h15a1 1 0 0 0 1-1Zm4 3H13a1 1 0 0 0 0 2h12a1 1 0 0 0 0-2Zm-15 1a1 1 0 0 0-1-1H7a1 1 0 0 0 0 2h2a1 1 0 0 0 1-1Zm13 3h-3a1 1 0 0 0 0 2h3a1 1 0 0 0 0-2Zm-7 0H9a1 1 0 0 0 0 2h7a1 1 0 0 0 0-2Zm6-10H9.17a5.08 5.08 0 0 1-5.06-4 5 5 0 0 1 3.77-5.87 7.5 7.5 0 0 1 13.17-2A5.72 5.72 0 0 1 22 5a6 6 0 1 1 0 12ZM15 4a5.49 5.49 0 0 0-5.36 4.25 1 1 0 0 1-.89.75 3 3 0 0 0-2.15 1.19 3 3 0 0 0-.53 2.45A3.08 3.08 0 0 0 9.17 15H22a4 4 0 1 0 0-8 3.71 3.71 0 0 0-1.1.16 1 1 0 0 1-1.14-.45A5.44 5.44 0 0 0 15 4Z" fill="#2f7ded"/>
    </g>
</svg>
