<svg viewBox="0 0 32 32" xmlns="http://www.w3.org/2000/svg">
    <defs>
        <style>
            .cls-1{fill:#2f7ded}
        </style>
    </defs>
    <g id="Sunset">
        <path class="cls-1" d="M16 13a1 1 0 0 0 1-1v-2a1 1 0 0 0-2 0v2a1 1 0 0 0 1 1Zm-7.78 2.64a1 1 0 0 0 .71.29 1 1 0 0 0 .71-.29 1 1 0 0 0 0-1.42l-1.42-1.41a1 1 0 0 0-1.41 1.41Z"/>
        <path d="M28 21h-5.08a7 7 0 0 0-13.84 0H4a1 1 0 0 0 0 2h24a1 1 0 0 0 0-2Z" fill="#9ac3f4"/>
        <path class="cls-1" d="M23.07 15.93a1 1 0 0 0 .71-.29l1.41-1.42a1 1 0 0 0-1.41-1.41l-1.42 1.41a1 1 0 0 0 0 1.42 1 1 0 0 0 .71.29ZM28 21h-5.08a7 7 0 0 0-13.84 0H4a1 1 0 0 0 0 2h24a1 1 0 0 0 0-2Zm-16.9 0a5 5 0 0 1 9.8 0Z"/>
    </g>
</svg>
