<svg viewBox="0 0 32 32" fill="currentColor" xmlns="http://www.w3.org/2000/svg">
    <g data-name="sunset">
        <path d="M16 15a7 7 0 0 0-7 7 1 1 0 0 0 1 1h12a1 1 0 0 0 1-1 7 7 0 0 0-7-7Z" fill="#9ac3f4"/>
        <path d="M16 13a1 1 0 0 0 1-1v-2a1 1 0 0 0-2 0v2a1 1 0 0 0 1 1Zm-6.36 1.22-1.42-1.41a1 1 0 0 0-1.41 1.41l1.41 1.42a1 1 0 0 0 .71.29 1 1 0 0 0 .71-.29 1 1 0 0 0 0-1.42ZM6 21H4a1 1 0 0 0 0 2h2a1 1 0 0 0 0-2Zm22 0h-2a1 1 0 0 0 0 2h2a1 1 0 0 0 0-2Zm-2.81-8.19a1 1 0 0 0-1.41 0l-1.42 1.41a1 1 0 0 0 0 1.42 1 1 0 0 0 .71.29 1 1 0 0 0 .71-.29l1.41-1.42a1 1 0 0 0 0-1.41ZM16 15a7 7 0 0 0-7 7 1 1 0 0 0 1 1h12a1 1 0 0 0 1-1 7 7 0 0 0-7-7Zm-4.9 6a5 5 0 0 1 9.8 0Z" fill="#2f7ded"/>
    </g>
</svg>
