<svg viewBox="0 0 32 32" xmlns="http://www.w3.org/2000/svg">
    <defs>
        <style>
            .cls-5{fill:#2f7ded}
        </style>
    </defs>
    <g data-name="Rainbow Sun" id="Rainbow_Sun">
        <path d="M13 8a7 7 0 0 0-6.1 10.43 1 1 0 0 0 .68.49h.19a1 1 0 0 0 .63-.23 12.11 12.11 0 0 1 10.35-2.39 1 1 0 0 0 .78-.13 1 1 0 0 0 .43-.66A3.08 3.08 0 0 0 20 15a7 7 0 0 0-7-7Z" fill="#9ac3f4"/>
        <path d="M21 29a1 1 0 0 1-1-1 4 4 0 0 0-8 0 1 1 0 0 1-2 0 6 6 0 0 1 12 0 1 1 0 0 1-1 1Z" fill="#98cbf4"/>
        <path d="M25 29a1 1 0 0 1-1-1 8.05 8.05 0 0 0-6.78-7.91A9.11 9.11 0 0 0 16 20a8 8 0 0 0-8 8 1 1 0 0 1-2 0 10 10 0 0 1 10-10 11.91 11.91 0 0 1 1.5.11A10.07 10.07 0 0 1 26 28a1 1 0 0 1-1 1Z" fill="#5ca3f7"/>
        <path d="M29 29a1 1 0 0 1-1-1 11.94 11.94 0 0 0-9.25-11.68A12 12 0 0 0 4 28a1 1 0 0 1-2 0 14 14 0 0 1 28 0 1 1 0 0 1-1 1Z" fill="#2983ef"/>
        <path class="cls-5" d="M4 16H3a1 1 0 0 1 0-2h1a1 1 0 0 1 0 2Zm2.64-6.36a1 1 0 0 1-.71-.3l-.71-.7a1 1 0 1 1 1.42-1.42l.7.71a1 1 0 0 1 0 1.41 1 1 0 0 1-.7.3ZM13 7a1 1 0 0 1-1-1V5a1 1 0 0 1 2 0v1a1 1 0 0 1-1 1Zm6.36 2.64a1 1 0 0 1-.7-.3 1 1 0 0 1 0-1.41l.7-.71a1 1 0 1 1 1.42 1.42l-.71.7a1 1 0 0 1-.71.3ZM16 22a6 6 0 0 0-6 6 1 1 0 0 0 2 0 4 4 0 0 1 8 0 1 1 0 0 0 2 0 6 6 0 0 0-6-6Z"/>
        <path class="cls-5" d="M16 18A10 10 0 0 0 6 28a1 1 0 0 0 2 0 8 8 0 0 1 16 0 1 1 0 0 0 2 0 10 10 0 0 0-10-10Z"/>
        <path class="cls-5" d="M20 14.59A7 7 0 1 0 6.55 17.7 13.93 13.93 0 0 0 2 28a1 1 0 0 0 2 0 12 12 0 1 1 24 0 1 1 0 0 0 2 0 13.92 13.92 0 0 0-10-13.41ZM13 10a5 5 0 0 1 4.92 4.13 14.26 14.26 0 0 0-9.73 2.25A4.89 4.89 0 0 1 8 15a5 5 0 0 1 5-5Z"/>
    </g>
</svg>
