<svg viewBox="0 0 32 32" fill="currentColor" xmlns="http://www.w3.org/2000/svg">
    <g data-name="Cloud Snow">
        <path d="M27.89 9.86A6 6 0 0 0 22 5a6.84 6.84 0 0 0-.91.07A7.55 7.55 0 0 0 15 2a7.47 7.47 0 0 0-7.12 5.13A5 5 0 0 0 4.11 13a5.08 5.08 0 0 0 5.06 4H22a6 6 0 0 0 5.89-7.14Z" fill="#9ac3f4"/>
        <path d="M11.5 25h-.79l.56-.56a.5.5 0 0 0-.71-.71l-.56.56v-.79a.5.5 0 0 0-1 0v.79l-.56-.56a.5.5 0 0 0-.71.71l.56.56H7.5a.5.5 0 0 0 0 1h.79l-.56.56a.51.51 0 0 0 0 .71.5.5 0 0 0 .36.14.49.49 0 0 0 .35-.14l.56-.56v.79a.5.5 0 0 0 1 0v-.79l.56.56a.49.49 0 0 0 .35.14.5.5 0 0 0 .36-.14.51.51 0 0 0 0-.71l-.56-.56h.79a.5.5 0 0 0 0-1Zm6 0h-.79l.56-.56a.5.5 0 0 0-.71-.71l-.56.56v-.79a.5.5 0 0 0-1 0v.79l-.56-.56a.5.5 0 0 0-.71.71l.56.56h-.79a.5.5 0 0 0 0 1h.79l-.56.56a.51.51 0 0 0 0 .71.5.5 0 0 0 .36.14.49.49 0 0 0 .35-.14l.56-.56v.79a.5.5 0 0 0 1 0v-.79l.56.56a.49.49 0 0 0 .35.14.5.5 0 0 0 .36-.14.51.51 0 0 0 0-.71l-.56-.56h.79a.5.5 0 0 0 0-1Zm6 0h-.79l.56-.56a.5.5 0 0 0-.71-.71l-.56.56v-.79a.5.5 0 0 0-1 0v.79l-.56-.56a.5.5 0 0 0-.71.71l.56.56h-.79a.5.5 0 0 0 0 1h.79l-.56.56a.51.51 0 0 0 0 .71.5.5 0 0 0 .36.14.49.49 0 0 0 .35-.14l.56-.56v.79a.5.5 0 0 0 1 0v-.79l.56.56a.49.49 0 0 0 .35.14.5.5 0 0 0 .36-.14.51.51 0 0 0 0-.71l-.56-.56h.79a.5.5 0 0 0 0-1ZM13 21.71l.56.56a.49.49 0 0 0 .35.14.5.5 0 0 0 .36-.14.51.51 0 0 0 0-.71l-.56-.56h.79a.5.5 0 0 0 0-1h-.79l.56-.56a.5.5 0 0 0-.71-.71l-.56.56v-.79a.5.5 0 0 0-1 0v.79l-.56-.56a.5.5 0 0 0-.71.71l.56.56h-.79a.5.5 0 0 0 0 1h.79l-.56.56a.51.51 0 0 0 0 .71.5.5 0 0 0 .36.14.49.49 0 0 0 .35-.14l.56-.56v.79a.5.5 0 0 0 1 0Zm6 0 .56.56a.49.49 0 0 0 .35.14.5.5 0 0 0 .36-.14.51.51 0 0 0 0-.71l-.56-.56h.79a.5.5 0 0 0 0-1h-.79l.56-.56a.5.5 0 0 0-.71-.71l-.56.56v-.79a.5.5 0 0 0-1 0v.79l-.56-.56a.5.5 0 0 0-.71.71l.56.56h-.79a.5.5 0 0 0 0 1h.79l-.56.56a.51.51 0 0 0 0 .71.5.5 0 0 0 .36.14.49.49 0 0 0 .35-.14l.56-.56v.79a.5.5 0 0 0 1 0ZM26.5 20h-.79l.56-.56a.5.5 0 0 0-.71-.71l-.56.56v-.79a.5.5 0 0 0-1 0v.79l-.56-.56a.5.5 0 0 0-.71.71l.56.56h-.79a.5.5 0 0 0 0 1h.79l-.56.56a.51.51 0 0 0 0 .71.5.5 0 0 0 .36.14.49.49 0 0 0 .35-.14l.56-.56v.79a.5.5 0 0 0 1 0v-.79l.56.56a.49.49 0 0 0 .35.14.5.5 0 0 0 .36-.14.51.51 0 0 0 0-.71l-.56-.56h.79a.5.5 0 0 0 0-1ZM22 17a6 6 0 0 0 0-12 6.84 6.84 0 0 0-.91.07A7.55 7.55 0 0 0 15 2a7.47 7.47 0 0 0-7.12 5.13A5 5 0 0 0 4.11 13a5.08 5.08 0 0 0 5.06 4ZM6.07 12.64a3 3 0 0 1 .53-2.45A3 3 0 0 1 8.75 9a1 1 0 0 0 .89-.77 5.5 5.5 0 0 1 10.1-1.54 1 1 0 0 0 1.14.45A3.71 3.71 0 0 1 22 7a4 4 0 0 1 0 8H9.17a3.08 3.08 0 0 1-3.1-2.36Z" fill="#2f7ded"/>
    </g>
</svg>
