<svg viewBox="0 0 32 32" xmlns="http://www.w3.org/2000/svg">
    <path d="M27.11 17.31 22.94 19l-5-3 5-3 4.17 1.7a1 1 0 0 0 .38.07 1 1 0 0 0 .38-1.92l-2.78-1.13 2.57-1.55a1 1 0 1 0-1-1.71L24.06 10l.3-3a1 1 0 0 0-2-.21l-.46 4.48-4.91 3V8.5l3.6-2.7a1 1 0 1 0-1.2-1.6L17 6V3a1 1 0 0 0-2 0v3l-2.4-1.8a1 1 0 1 0-1.2 1.6L15 8.5v5.73l-4.91-3-.46-4.43a1 1 0 0 0-2 .21l.3 3-2.56-1.56a1 1 0 1 0-1 1.71l2.57 1.55-2.81 1.13a1 1 0 0 0 .38 1.92 1 1 0 0 0 .38-.07L9.06 13l5 3-5 3-4.17-1.7a1 1 0 1 0-.76 1.85l2.78 1.13-2.57 1.56A1 1 0 0 0 4 23.21a1 1 0 0 0 .86.49 1 1 0 0 0 .51-.15L7.94 22l-.3 3a1 1 0 0 0 .89 1.1h.1a1 1 0 0 0 1-.89l.46-4.48L15 17.77v5.73l-3.6 2.7a1 1 0 0 0 1.2 1.6L15 26v3a1 1 0 0 0 2 0v-3l2.4 1.8a1 1 0 0 0 .6.2 1 1 0 0 0 .8-.4 1 1 0 0 0-.2-1.4L17 23.5v-5.73l4.91 2.95.46 4.48a1 1 0 0 0 1 .89h.1a1 1 0 0 0 .89-1.1l-.3-3 2.57 1.54a1 1 0 0 0 .51.15 1 1 0 0 0 .86-.49 1 1 0 0 0-.34-1.37l-2.57-1.55 2.78-1.13a1 1 0 1 0-.76-1.85Z" fill="#2f7ded"/>
</svg>
