<svg viewBox="0 0 32 32" xmlns="http://www.w3.org/2000/svg">
    <path d="M29 12.69a1 1 0 0 0-1-.69h-8.63L17 4.43a1 1 0 0 0-.95-.7 1 1 0 0 0-1 .7L12.7 12H4a1 1 0 0 0-.59 1.8l7.07 5.2-2.43 7.7a1 1 0 0 0 1.54 1.11L16 23.08l6.41 4.73a1 1 0 0 0 1.17 0A1 1 0 0 0 24 26.7L21.55 19l7-5.18a1 1 0 0 0 .45-1.13Z" fill="#9ac3f4"/>
    <path d="M29 12.69a1 1 0 0 0-1-.69h-8.63L17 4.43a1 1 0 0 0-.95-.7 1 1 0 0 0-1 .7L12.7 12H4a1 1 0 0 0-.59 1.8l7.07 5.2-2.43 7.7a1 1 0 0 0 1.54 1.11L16 23.08l6.41 4.73a1 1 0 0 0 1.17 0A1 1 0 0 0 24 26.7L21.55 19l7-5.18a1 1 0 0 0 .45-1.13Zm-9.21 5.11a1 1 0 0 0-.36 1.11l1.7 5.47L16.59 21a1 1 0 0 0-1.18 0l-4.53 3.33 1.72-5.43a1 1 0 0 0-.36-1.1L7 14h6.39a1 1 0 0 0 1-.7L16 8.06l1.63 5.24a1 1 0 0 0 1 .7H25Z" fill="#2f7ded"/>
</svg>
