<svg viewBox="0 0 32 32" xmlns="http://www.w3.org/2000/svg">
    <defs>
        <style>
            .cls-3{fill:#2f7ded}
        </style>
    </defs>
    <g data-name="cloud sun" id="cloud_sun">
        <path d="M17.51 12.61A6 6 0 1 0 8 19.49a1 1 0 0 0 .66.25 1 1 0 0 0 .58-.19 2.88 2.88 0 0 1 1.51-.55 1 1 0 0 0 .89-.77 5.53 5.53 0 0 1 5-4.24 1 1 0 0 0 .86-1.4Z" fill="#fff"/>
        <path d="M29.89 19.86A6 6 0 0 0 24 15a9.22 9.22 0 0 0-.94.07A7.52 7.52 0 0 0 17 12h-.47a7.56 7.56 0 0 0-6.65 5.12 4.75 4.75 0 0 0-1.76.79 5 5 0 0 0-2 5.12 5.09 5.09 0 0 0 5.06 4H24a6 6 0 0 0 5.89-7.14Z" fill="#9ac3f4"/>
        <path class="cls-3" d="M4 16H3a1 1 0 0 1 0-2h1a1 1 0 0 1 0 2Zm13.66-5.66a1 1 0 0 1-.71-.29 1 1 0 0 1 0-1.41l.71-.71a1 1 0 1 1 1.41 1.41l-.71.71a1 1 0 0 1-.7.29ZM12 8a1 1 0 0 1-1-1V6a1 1 0 0 1 2 0v1a1 1 0 0 1-1 1Zm-5.66 2.34a1 1 0 0 1-.7-.29l-.71-.71a1 1 0 0 1 1.41-1.41l.71.71a1 1 0 0 1 0 1.41 1 1 0 0 1-.71.29Z"/>
        <path class="cls-3" d="M29.89 19.86A6 6 0 0 0 24 15a9.2 9.2 0 0 0-.95.07A7.51 7.51 0 0 0 17.19 12a6 6 0 1 0-9.91 6.67A5 5 0 0 0 11.17 27H24a6 6 0 0 0 5.89-7.14ZM12 11a4 4 0 0 1 2.94 1.29c-.13 0-.25.09-.38.13l-.33.12a6.13 6.13 0 0 0-.73.35 1.11 1.11 0 0 0-.19.09 9.59 9.59 0 0 0-.85.56l-.19.16a7 7 0 0 0-.57.52l-.24.25c-.15.17-.3.34-.43.52l-.22.3c-.13.19-.25.4-.37.6s-.11.19-.15.28a8.15 8.15 0 0 0-.41 1 5.28 5.28 0 0 0-1 .33A4 4 0 0 1 12 11Zm15.08 12.55A4 4 0 0 1 24 25H11.17a3.09 3.09 0 0 1-3.1-2.36 3 3 0 0 1 1.21-3.09 2.82 2.82 0 0 1 1.47-.55 1 1 0 0 0 .9-.77 5.52 5.52 0 0 1 5-4.24h.26a5.51 5.51 0 0 1 4.81 2.71 1 1 0 0 0 1.14.45A3.74 3.74 0 0 1 24 17a4 4 0 0 1 3.11 6.55Z"/>
    </g>
</svg>
