<svg viewBox="0 0 32 32" xmlns="http://www.w3.org/2000/svg">
    <path d="M27 22h-2.91a1 1 0 0 1 0-2H27a1 1 0 0 1 0 2Zm-7 0H5a1 1 0 0 1 0-2h15a1 1 0 0 1 0 2Zm5 4H13a1 1 0 0 1 0-2h12a1 1 0 0 1 0 2ZM9 26H7a1 1 0 0 1 0-2h2a1 1 0 0 1 0 2Zm14 4h-3a1 1 0 0 1 0-2h3a1 1 0 0 1 0 2Zm-7 0H9a1 1 0 0 1 0-2h7a1 1 0 0 1 0 2Z" fill="#2278f4"/>
    <path d="M16 7a9 9 0 0 0-9 9 1 1 0 0 0 1 1h16a1 1 0 0 0 1-1 9 9 0 0 0-9-9Z" fill="#9ac3f4"/>
    <path d="M4 17H3a1 1 0 0 1 0-2h1a1 1 0 0 1 0 2Zm3.22-8.78a1 1 0 0 1-.71-.29l-.7-.71a1 1 0 0 1 1.41-1.41l.71.7a1 1 0 0 1 0 1.42 1 1 0 0 1-.71.29ZM16 5a1 1 0 0 1-1-1V3a1 1 0 0 1 2 0v1a1 1 0 0 1-1 1Zm8.78 3.22a1 1 0 0 1-.71-.29 1 1 0 0 1 0-1.42l.71-.7a1 1 0 0 1 1.41 1.41l-.7.71a1 1 0 0 1-.71.29ZM29 17h-1a1 1 0 0 1 0-2h1a1 1 0 0 1 0 2Zm-5 0H8a1 1 0 0 1-1-1 9 9 0 0 1 18 0 1 1 0 0 1-1 1ZM9.07 15h13.86a7 7 0 0 0-13.86 0Z" fill="#2f7ded"/>
</svg>
