<svg viewBox="0 0 32 32" fill="currentColor" xmlns="http://www.w3.org/2000/svg">
    <path d="M25.42 13.62a1 1 0 0 0-.92-.62h-6.75l1.73-7.78a1 1 0 0 0-.54-1.12 1 1 0 0 0-1.2.25l-11 13a1 1 0 0 0-.15 1.07 1 1 0 0 0 .91.58h5.61l-2.56 7.68a1 1 0 0 0 .45 1.17 1 1 0 0 0 .53.15 1 1 0 0 0 .71-.29l13-13a1 1 0 0 0 .18-1.09Z" fill="#9ac3f4"/>
    <path d="M11.5 28a1 1 0 0 1-.53-.15 1 1 0 0 1-.42-1.17L13.11 19H7.5a1 1 0 0 1-.91-.58 1 1 0 0 1 .15-1.07l11-13a1 1 0 0 1 1.2-.25 1 1 0 0 1 .54 1.12L17.75 13h6.75a1 1 0 0 1 .92.62 1 1 0 0 1-.21 1.09l-13 13a1 1 0 0 1-.71.29ZM9.66 17h4.84a1 1 0 0 1 .81.42 1 1 0 0 1 .14.9l-1.66 5 8.3-8.3H16.5a1 1 0 0 1-.78-.37 1 1 0 0 1-.2-.85l1.12-5Z" fill="#2f7ded"/>
</svg>
