<svg viewBox="0 0 32 32" xmlns="http://www.w3.org/2000/svg">
    <defs>
        <style>
            .cls-1{fill:#2f7ded}
        </style>
    </defs>
    <g data-name="sun wave" id="sun_wave">
        <path class="cls-1" d="M16 5a1 1 0 0 0 1-1V3a1 1 0 0 0-2 0v1a1 1 0 0 0 1 1Zm-5.66 1.76a1 1 0 0 0 1.42 0 1 1 0 0 0 0-1.42l-.71-.7a1 1 0 0 0-1.41 1.41ZM8 12h1a1 1 0 0 0 0-2H8a1 1 0 0 0 0 2Zm2.34 3.24-.7.71a1 1 0 0 0 0 1.41 1 1 0 0 0 .7.3 1 1 0 0 0 .71-.3l.71-.7a1 1 0 1 0-1.42-1.42ZM15 18v1a1 1 0 0 0 2 0v-1a1 1 0 0 0-2 0Zm5.24-2.76a1 1 0 0 0 0 1.42l.71.7a1 1 0 0 0 .71.3 1 1 0 0 0 .7-.3 1 1 0 0 0 0-1.41l-.7-.71a1 1 0 0 0-1.42 0ZM22 11a1 1 0 0 0 1 1h1a1 1 0 0 0 0-2h-1a1 1 0 0 0-1 1Zm-1-3.95a1 1 0 0 0 .71-.29l.7-.71A1 1 0 1 0 21 4.64l-.71.7a1 1 0 0 0 0 1.42 1 1 0 0 0 .71.29Z"/>
        <circle cx="16" cy="11" r="5" fill="#9ac3f4"/>
        <path class="cls-1" d="M27 26.88a2.18 2.18 0 0 1-1.58-.66 4.18 4.18 0 0 0-5.65 0 2.18 2.18 0 0 1-1.58.66 2.14 2.14 0 0 1-1.57-.66 4.18 4.18 0 0 0-5.65 0 2.21 2.21 0 0 1-3.15 0A4.07 4.07 0 0 0 5 25.12a1 1 0 0 0 0 2 2.14 2.14 0 0 1 1.57.66 4.12 4.12 0 0 0 2.83 1.1 4.07 4.07 0 0 0 2.82-1.1 2.16 2.16 0 0 1 1.57-.66 2.18 2.18 0 0 1 1.58.66 4.18 4.18 0 0 0 5.65 0 2.18 2.18 0 0 1 1.58-.66 2.14 2.14 0 0 1 1.57.66 4.12 4.12 0 0 0 2.83 1.1 1 1 0 0 0 0-2Z"/>
        <path class="cls-1" d="M5 23.12a2.14 2.14 0 0 1 1.57.66 4.12 4.12 0 0 0 2.83 1.1 4.07 4.07 0 0 0 2.82-1.1 2.16 2.16 0 0 1 1.57-.66 2.18 2.18 0 0 1 1.58.66 4.18 4.18 0 0 0 5.65 0 2.18 2.18 0 0 1 1.58-.66 2.14 2.14 0 0 1 1.57.66 4.12 4.12 0 0 0 2.83 1.1 1 1 0 0 0 0-2 2.18 2.18 0 0 1-1.58-.66 4.18 4.18 0 0 0-5.65 0 2.18 2.18 0 0 1-1.58.66 2.14 2.14 0 0 1-1.57-.66 4.18 4.18 0 0 0-5.65 0 2.21 2.21 0 0 1-3.15 0A4.07 4.07 0 0 0 5 21.12a1 1 0 0 0 0 2ZM16 16a5 5 0 1 0-5-5 5 5 0 0 0 5 5Zm0-8a3 3 0 1 1-3 3 3 3 0 0 1 3-3Z"/>
    </g>
</svg>
