<svg viewBox="0 0 32 32" fill="currentColor" xmlns="http://www.w3.org/2000/svg">
    <g data-name="Umbrella drop">
        <path d="M14 30a3 3 0 0 1-3-3 1 1 0 0 1 2 0 1 1 0 0 0 2 0V16a1 1 0 0 1 2 0v11a3 3 0 0 1-3 3Zm2-22a1 1 0 0 1-1-1V4a1 1 0 0 1 2 0v3a1 1 0 0 1-1 1Z" fill="#b3bfc6"/>
        <path d="M25.85 10.51a1 1 0 0 0-1.75.5 1.14 1.14 0 0 1-.89 1h-.4a1 1 0 0 1-.78-.57 1.36 1.36 0 0 1 0-1.21l.65-1.29a1 1 0 0 0-.41-1.33 13.06 13.06 0 0 0-12.11-.2 1 1 0 0 0-.5 1.19 2 2 0 0 1-.22 1.65 1.57 1.57 0 0 1-1.17.75 1.69 1.69 0 0 1-.55 0 1.57 1.57 0 0 1-.64-.24 1 1 0 0 0-1.32.24A12.94 12.94 0 0 0 3 19a1 1 0 0 0 1 1h.13a1 1 0 0 0 1-.75 3 3 0 0 1 5.8 0 1 1 0 0 0 1 .75h.26a1 1 0 0 0 1-.75 3 3 0 0 1 5.8 0 1 1 0 0 0 1 .75h.26a1 1 0 0 0 1-.75 3 3 0 0 1 5.8 0 1 1 0 0 0 1 .75H28a1 1 0 0 0 1-1 13 13 0 0 0-3.15-8.49Z" fill="#9ac3f4"/>
        <path d="M11.56 8a3.3 3.3 0 0 0-.25-.63L8.89 2.55a1 1 0 0 0-1.78 0L4.69 7.39A3.93 3.93 0 0 0 6 12.44a3.45 3.45 0 0 0 1.44.56A3.52 3.52 0 0 0 8 13a3.39 3.39 0 0 0 .55 0 3.57 3.57 0 0 0 2.56-1.65A4 4 0 0 0 11.56 8Zm14.21 1.31-1.88-3.76A1 1 0 0 0 23 5a1 1 0 0 0-.9.55l-1.88 3.76a3.35 3.35 0 0 0 .05 3A3 3 0 0 0 22.6 14h.85a3.11 3.11 0 0 0 2.63-2.65 3.3 3.3 0 0 0-.31-2.04Z" fill="#fff"/>
        <path d="M26.12 10.85a3.27 3.27 0 0 0-.35-1.54l-1.88-3.76A1 1 0 0 0 23 5a1 1 0 0 0-.9.55l-.79 1.6A13.09 13.09 0 0 0 17 6.06V4a1 1 0 0 0-2 0v2.06a12.75 12.75 0 0 0-3.9.94L8.89 2.55a1 1 0 0 0-1.78 0L4.69 7.39a4 4 0 0 0 .53 4.33A12.93 12.93 0 0 0 3 19a1 1 0 0 0 1 1h.13a1 1 0 0 0 1-.75 3 3 0 0 1 5.8 0 1 1 0 0 0 1 .75h.26a1 1 0 0 0 1-.75A3 3 0 0 1 15 17.17V27a1 1 0 0 1-2 0 1 1 0 0 0-2 0 3 3 0 0 0 6 0v-9.83a3 3 0 0 1 1.9 2.08 1 1 0 0 0 1 .75h.26a1 1 0 0 0 1-.75 3 3 0 0 1 5.8 0 1 1 0 0 0 1 .75H28a1 1 0 0 0 1-1 13 13 0 0 0-2.88-8.15ZM23 8.24l1 2a1.24 1.24 0 0 1-.79 1.76h-.4a1.23 1.23 0 0 1-.8-1.78c1.2-2.39-.2.4.99-1.98Zm-16.53 0 1.53-3 1.53 3A1.86 1.86 0 0 1 8.27 11a1.69 1.69 0 0 1-.55 0 1.86 1.86 0 0 1-1.25-2.71ZM24 15a5 5 0 0 0-4 2 5 5 0 0 0-8 0 5 5 0 0 0-6.49-1.34 10.37 10.37 0 0 1 1.37-2.82 3.77 3.77 0 0 0 4.84-4 11.18 11.18 0 0 1 8.7.06C18.37 13 23 15.47 25.25 13a11.19 11.19 0 0 1 1.23 2.62A5 5 0 0 0 24 15Z" fill="#2f7ded"/>
    </g>
</svg>
