<svg viewBox="0 0 32 32" fill="currentColor" xmlns="http://www.w3.org/2000/svg">
    <defs>
        <style>
            .cls-2{fill:#2f7ded}
        </style>
    </defs>
    <g data-name="Cloud Beach" id="Cloud_Beach">
        <path d="M18.68 9.25a5 5 0 1 0-7.93 5.55 1 1 0 0 0 .65.24 1.07 1.07 0 0 0 .52-.14 1.9 1.9 0 0 1 .88-.28 1 1 0 0 0 .91-.77 4.24 4.24 0 0 1 3.88-3.25h.08a1 1 0 0 0 .89-.43 1 1 0 0 0 .12-.92Z" fill="#fff"/>
        <path class="cls-2" d="M14 5a1 1 0 0 1-1-1V3a1 1 0 0 1 2 0v1a1 1 0 0 1-1 1ZM9.05 7.05a1 1 0 0 1-.71-.29l-.7-.71a1 1 0 0 1 1.41-1.41l.71.7a1 1 0 0 1 0 1.42 1 1 0 0 1-.71.29ZM7 12H6a1 1 0 0 1 0-2h1a1 1 0 0 1 0 2Zm12-4.95a1 1 0 0 1-.71-.29 1 1 0 0 1 0-1.42l.71-.7a1 1 0 1 1 1.41 1.41l-.7.71a1 1 0 0 1-.71.29Zm8 23.83a4.12 4.12 0 0 1-2.83-1.1 2.14 2.14 0 0 0-1.57-.66 2.18 2.18 0 0 0-1.58.66 4.18 4.18 0 0 1-5.65 0 2.18 2.18 0 0 0-1.58-.66 2.16 2.16 0 0 0-1.57.66 4.18 4.18 0 0 1-5.65 0A2.14 2.14 0 0 0 5 29.12a1 1 0 0 1 0-2 4.07 4.07 0 0 1 2.82 1.1 2.21 2.21 0 0 0 3.15 0 4.18 4.18 0 0 1 5.65 0 2.16 2.16 0 0 0 1.57.66 2.18 2.18 0 0 0 1.58-.66 4.18 4.18 0 0 1 5.65 0 2.18 2.18 0 0 0 1.58.66 1 1 0 0 1 0 2Z"/>
        <path class="cls-2" d="M27 26.88a4.12 4.12 0 0 1-2.83-1.1 2.14 2.14 0 0 0-1.57-.66 2.18 2.18 0 0 0-1.58.66 4.18 4.18 0 0 1-5.65 0 2.18 2.18 0 0 0-1.58-.66 2.16 2.16 0 0 0-1.57.66 4.18 4.18 0 0 1-5.65 0A2.14 2.14 0 0 0 5 25.12a1 1 0 0 1 0-2 4.07 4.07 0 0 1 2.82 1.1 2.21 2.21 0 0 0 3.15 0 4.18 4.18 0 0 1 5.65 0 2.16 2.16 0 0 0 1.57.66 2.18 2.18 0 0 0 1.58-.66 4.18 4.18 0 0 1 5.65 0 2.18 2.18 0 0 0 1.58.66 1 1 0 0 1 0 2Z"/>
        <path d="M28.31 15.05a5 5 0 0 0-4.9-4.05 4.88 4.88 0 0 0-.68 0 6.24 6.24 0 0 0-5-2.44h-.33a6.22 6.22 0 0 0-5.4 4.17 4 4 0 0 0-1 .42 2.33 2.33 0 0 0-.35.22 4.23 4.23 0 0 0-1.69 4.3A4.29 4.29 0 0 0 13.14 21H23.4a5 5 0 0 0 4.91-5.95Z" fill="#9ac3f4"/>
        <path class="cls-2" d="M10 13.93a4.23 4.23 0 0 0-1.06 3.74 4.29 4.29 0 0 0 4.2 3.33H23.4a5 5 0 0 0 4.91-5.95 5 5 0 0 0-4.9-4.05 4.88 4.88 0 0 0-.68 0 6.19 6.19 0 0 0-4.34-2.4A5 5 0 1 0 10 13.93Zm11.47-1.26a1 1 0 0 0 1.14.45 2.71 2.71 0 0 1 .79-.12 3 3 0 1 1 0 6H13.14a2.29 2.29 0 0 1-2.29-1.73 2.25 2.25 0 0 1 1-2.31l.12-.06a1.9 1.9 0 0 1 .88-.28 1 1 0 0 0 .91-.77 4.24 4.24 0 0 1 3.88-3.25h.21a4.2 4.2 0 0 1 3.57 2.07ZM14 8a3 3 0 0 1 2.08.84l-.28.1-.28.1-.52.26-.19.09a8.18 8.18 0 0 0-.69.45L14 10c-.17.13-.33.28-.49.43l-.19.2-.36.42-.17.24a5 5 0 0 0-.31.49 2.53 2.53 0 0 0-.13.22 5.82 5.82 0 0 0-.34.77l-.34.1A3 3 0 0 1 11 11a3 3 0 0 1 3-3Z"/>
    </g>
</svg>
