<svg viewBox="0 0 32 32" xmlns="http://www.w3.org/2000/svg">
    <g data-name="Cloud thunder">
        <path d="M27.89 9.86A6 6 0 0 0 22 5a7.12 7.12 0 0 0-.92.07 7.5 7.5 0 0 0-13.2 2.06A5 5 0 0 0 4.11 13a5.08 5.08 0 0 0 5.06 4H22a6 6 0 0 0 5.89-7.14Z" fill="#9ac3f4"/>
        <path d="M22.3 18.62a1 1 0 0 0-.92-.62h-4.76l1.23-5.53a1 1 0 0 0-1.74-.87l-8.25 9.75A1 1 0 0 0 8.63 23h3.86l-1.81 5.43a1 1 0 0 0 .42 1.17 1 1 0 0 0 .53.15 1 1 0 0 0 .7-.29l9.75-9.75a1 1 0 0 0 .22-1.09Z" fill="#fff"/>
        <path d="M27.89 9.86A6 6 0 0 0 22 5a7.12 7.12 0 0 0-.92.07 7.5 7.5 0 0 0-13.2 2.06A5 5 0 0 0 4.11 13a5.08 5.08 0 0 0 5.06 4h2.38l-3.69 4.35A1 1 0 0 0 8.63 23h3.86l-1.81 5.43a1 1 0 0 0 .42 1.17 1 1 0 0 0 .53.15 1 1 0 0 0 .7-.29l9.75-9.75a1 1 0 0 0-.7-1.71h-4.76l.22-1H22a6 6 0 0 0 5.89-7.14ZM19 20l-5.05 5.05.91-2.73a1 1 0 0 0-.98-1.32h-3.1L15 16l-.62 2.79a1 1 0 0 0 .19.85 1 1 0 0 0 .79.37Zm6.12-6.45A4 4 0 0 1 22 15h-4.71l.56-2.53a1 1 0 0 0-1.74-.87L13.24 15H9.17a3.08 3.08 0 0 1-3.1-2.36 3 3 0 0 1 .53-2.45A3 3 0 0 1 8.75 9a1 1 0 0 0 .89-.77 5.5 5.5 0 0 1 10.1-1.54 1 1 0 0 0 1.14.45A3.8 3.8 0 0 1 22 7a4 4 0 0 1 3.08 6.55Z" fill="#2f7ded"/>
    </g>
</svg>
