<svg viewBox="0 0 32 32" fill="currentColor" xmlns="http://www.w3.org/2000/svg">
    <defs>
        <style>
            .cls-1{fill:#fff}
        </style>
    </defs>
    <g id="Drops">
        <path class="cls-1" d="M10.83 16.45a1 1 0 0 0-1.66 0l-2.89 4.32a4.77 4.77 0 0 0-.34 4.64A4.39 4.39 0 0 0 9.41 28a5.83 5.83 0 0 0 .59 0 5.49 5.49 0 0 0 .58 0 4.39 4.39 0 0 0 3.48-2.56 4.77 4.77 0 0 0-.34-4.64Z"/>
        <path d="m19.12 10.25-2.26-3.76a1 1 0 0 0-1.72 0l-2.26 3.76a3.89 3.89 0 0 0-.16 3.69 3.54 3.54 0 0 0 2.74 2 3.67 3.67 0 0 0 1.08 0 3.54 3.54 0 0 0 2.74-2 3.89 3.89 0 0 0-.16-3.69Z" fill="#9ac3f4"/>
        <path class="cls-1" d="m26.12 18.25-2.26-3.76a1 1 0 0 0-1.72 0l-2.26 3.76a3.89 3.89 0 0 0-.16 3.69 3.54 3.54 0 0 0 2.74 2 3.67 3.67 0 0 0 1.08 0 3.54 3.54 0 0 0 2.74-2 3.89 3.89 0 0 0-.16-3.69Z"/>
        <path d="M10.83 16.45a1 1 0 0 0-1.66 0l-2.89 4.32a4.77 4.77 0 0 0-.34 4.64A4.39 4.39 0 0 0 9.41 28a5.83 5.83 0 0 0 .59 0 5.49 5.49 0 0 0 .58 0 4.39 4.39 0 0 0 3.48-2.56 4.77 4.77 0 0 0-.34-4.64Zm1.42 8.12a2.37 2.37 0 0 1-1.9 1.43 2.73 2.73 0 0 1-.7 0 2.37 2.37 0 0 1-1.9-1.41A2.77 2.77 0 0 1 8 21.88l2-3.08 2.05 3.08a2.77 2.77 0 0 1 .2 2.69Zm6.87-14.32-2.26-3.76a1 1 0 0 0-1.72 0l-2.26 3.76a3.89 3.89 0 0 0-.16 3.69 3.54 3.54 0 0 0 2.74 2 3.67 3.67 0 0 0 1.08 0 3.54 3.54 0 0 0 2.74-2 3.89 3.89 0 0 0-.16-3.69Zm-1.64 2.83a1.59 1.59 0 0 1-1.2.9 2.53 2.53 0 0 1-.55 0 1.59 1.59 0 0 1-1.21-.9 1.94 1.94 0 0 1 .08-1.8L16 8.94l1.4 2.34a1.94 1.94 0 0 1 .08 1.8Zm8.64 5.17-2.26-3.76a1 1 0 0 0-1.72 0l-2.26 3.76a3.89 3.89 0 0 0-.16 3.69 3.54 3.54 0 0 0 2.74 2 3.67 3.67 0 0 0 1.08 0 3.54 3.54 0 0 0 2.74-2 3.89 3.89 0 0 0-.16-3.69Zm-1.64 2.83a1.59 1.59 0 0 1-1.2.9 2.53 2.53 0 0 1-.55 0 1.59 1.59 0 0 1-1.21-.9 1.94 1.94 0 0 1 .08-1.8l1.4-2.34 1.4 2.34a1.94 1.94 0 0 1 .08 1.8Z" fill="#2f7ded"/>
    </g>
</svg>
