<svg viewBox="0 0 32 32" fill="currentColor" xmlns="http://www.w3.org/2000/svg">
    <circle cx="16" cy="16" r="7" fill="#9ac3f4"/>
    <path d="M16 7a1 1 0 0 0 1-1V3a1 1 0 0 0-2 0v3a1 1 0 0 0 1 1ZM8.22 9.64a1 1 0 0 0 .71.29 1 1 0 0 0 .71-.29 1 1 0 0 0 0-1.42L7.51 6.1A1 1 0 0 0 6.1 7.51ZM7 16a1 1 0 0 0-1-1H3a1 1 0 0 0 0 2h3a1 1 0 0 0 1-1Zm1.22 6.36L6.1 24.49a1 1 0 0 0 0 1.41 1 1 0 0 0 .71.29 1 1 0 0 0 .7-.29l2.13-2.12a1 1 0 0 0-1.42-1.42ZM16 25a1 1 0 0 0-1 1v3a1 1 0 0 0 2 0v-3a1 1 0 0 0-1-1Zm7.78-2.64a1 1 0 0 0-1.42 1.42l2.13 2.12a1 1 0 0 0 .7.29 1 1 0 0 0 .71-.29 1 1 0 0 0 0-1.41ZM29 15h-3a1 1 0 0 0 0 2h3a1 1 0 0 0 0-2Zm-5.93-5.07a1 1 0 0 0 .71-.29l2.12-2.13a1 1 0 1 0-1.41-1.41l-2.13 2.12a1 1 0 0 0 0 1.42 1 1 0 0 0 .71.29ZM16 9a7 7 0 1 0 7 7 7 7 0 0 0-7-7Zm0 12a5 5 0 1 1 5-5 5 5 0 0 1-5 5Z" fill="#2f7ded"/>
</svg>
